<svg width="81" height="73" viewBox="0 0 81 73" fill="none" xmlns="http://www.w3.org/2000/svg">
<path d="M76.2 50H55.5C53.567 50 52 51.567 52 53.5C52 59.299 56.701 64 62.5 64H67.8C73.9856 64 79 58.9856 79 52.8C79 51.2536 77.7464 50 76.2 50Z" stroke="black" stroke-width="4"/>
<path d="M26.2 50H5.5C3.567 50 2 51.567 2 53.5C2 59.299 6.70101 64 12.5 64H17.8C23.9856 64 29 58.9856 29 52.8C29 51.2536 27.7464 50 26.2 50Z" stroke="black" stroke-width="4"/>
<path fill-rule="evenodd" clip-rule="evenodd" d="M40 0C36.6863 0 34 2.68629 34 6V15.3009C34 18.6146 36.6863 21.3009 40 21.3009H47.7995L53.1281 25.5557C54.2229 26.43 55.7771 26.43 56.8719 25.5557L62.2005 21.3009H70C73.3137 21.3009 76 18.6146 76 15.3009V6C76 2.68629 73.3137 0 70 0H40ZM38 6C38 4.89543 38.8954 4 40 4H70C71.1046 4 72 4.89543 72 6V15.3009C72 16.4054 71.1046 17.3009 70 17.3009H62.2005C61.2935 17.3009 60.4134 17.6091 59.7046 18.1751L55 21.9317L50.2954 18.1751C49.5866 17.6091 48.7065 17.3009 47.7995 17.3009H40C38.8954 17.3009 38 16.4054 38 15.3009V6Z" fill="black"/>
<circle cx="40.5" cy="36.5" r="8.5" stroke="black" stroke-width="4"/>
<path d="M60.4999 55C60.4999 61.5 58 72 39.4999 73C28.9999 72.5 21.3333 67.5 20 59.5C17.4999 44.5 29.2827 47 39.4999 47C49.7172 47 60.4998 44.4525 60.4999 55Z" fill="white"/>
<path d="M52.5 52H28.875C26.7349 52 25 53.7349 25 55.875C25 62.2953 30.2047 67.5 36.625 67.5H43.5C50.1274 67.5 55.5 62.1274 55.5 55.5V55C55.5 53.3431 54.1569 52 52.5 52Z" stroke="black" stroke-width="4"/>
<path d="M73 36C73 39.7655 69.7454 43 65.5 43C61.2546 43 58 39.7655 58 36C58 32.2345 61.2546 29 65.5 29C69.7454 29 73 32.2345 73 36Z" stroke="black" stroke-width="4"/>
<path d="M23 36C23 39.7655 19.7454 43 15.5 43C11.2546 43 8 39.7655 8 36C8 32.2345 11.2546 29 15.5 29C19.7454 29 23 32.2345 23 36Z" stroke="black" stroke-width="4"/>
</svg>
