<svg xmlns="http://www.w3.org/2000/svg" data-name="Communication Plan" viewBox="0 0 64 64" id="communication-plan"><path d="m46,40c-6.07,0-11,4.93-11,11s4.93,11,11,11,11-4.93,11-11-4.93-11-11-11Zm0,20c-4.96,0-9-4.04-9-9s4.04-9,9-9,9,4.04,9,9-4.04,9-9,9Z"></path><path d="M49.24 46.35l-5.3 6.18-2.24-2.24c-.39-.39-1.02-.39-1.41 0s-.39 1.02 0 1.41l3 3c.19.19.44.29.71.29.01 0 .03 0 .04 0 .28-.01.54-.14.72-.35l6-7c.36-.42.31-1.05-.11-1.41-.42-.36-1.05-.31-1.41.11zM26 47.43l-4-1.18v-3.94c2.2-1.64 3.71-4.32 3.96-7.41 2.3-.45 4.04-2.47 4.04-4.9v-4.14c0-5.44-4.42-9.86-9.86-9.86h-6.33c-5.41 0-9.82 4.4-9.82 9.82v4.18c0 2.43 1.74 4.45 4.04 4.9.25 3.08 1.76 5.77 3.96 7.41v3.94l-3.99 1.18c-3.54.99-6.01 4.32-6.01 8.09v5.48c0 .55.45 1 1 1h28c.55 0 1-.45 1-1v-5.48c0-3.78-2.47-7.11-6-8.09zM8 29.47v3.36c-1.16-.41-2-1.52-2-2.83v-4.18c0-4.31 3.51-7.82 7.82-7.82h6.33c4.33 0 7.86 3.52 7.86 7.86v4.14c0 1.3-.84 2.42-2 2.83v-3.35c0-1.37-1.11-2.48-2.48-2.48h-5.33c-.51 0-.99-.19-1.35-.55l-2.15-2.1c-.19-.18-.44-.29-.7-.29-.03 0-.07 0-.1 0-.29.03-.56.19-.73.43l-1.4 2.06c-.19.27-.5.44-.83.44h-.46c-.69-.02-1.27.25-1.74.71-.47.47-.73 1.09-.73 1.76zm2 4.53v-4.53c0-.17.09-.29.14-.34.05-.05.17-.09.33-.13h.48c.99 0 1.92-.49 2.48-1.31l.73-1.07 1.29 1.27c.74.72 1.71 1.12 2.75 1.12h5.33c.26 0 .48.22.48.48v4.52c0 4.41-3.14 8-7 8s-7-3.59-7-8zm10 9.42v3.17l-3 3-3-3v-3.17c.94.37 1.95.58 3 .58s2.06-.21 3-.58zm10 16.58H4v-4.48c0-2.88 1.87-5.42 4.56-6.17l4.15-1.22 3.58 3.58c.2.2.45.29.71.29s.51-.1.71-.29l3.58-3.58 4.16 1.23c2.68.75 4.55 3.28 4.55 6.17v4.48zM59 2h-24c-1.65 0-3 1.35-3 3v19c0 1.65 1.35 3 3 3h3v3c0 .37.2.71.53.88.15.08.31.12.47.12.19 0 .39-.06.55-.17l5.75-3.83h13.7c1.65 0 3-1.35 3-3V5c0-1.65-1.35-3-3-3zm1 22c0 .55-.45 1-1 1h-14c-.2 0-.39.06-.55.17l-4.45 2.96v-2.13c0-.55-.45-1-1-1h-4c-.55 0-1-.45-1-1V5c0-.55.45-1 1-1h24c.55 0 1 .45 1 1v19z"></path><path d="M42 7h-4c-.55 0-1 .45-1 1v4c0 .55.45 1 1 1h4c.55 0 1-.45 1-1v-4c0-.55-.45-1-1-1zm-1 4h-2v-2h2v2zM42 16h-4c-.55 0-1 .45-1 1v4c0 .55.45 1 1 1h4c.55 0 1-.45 1-1v-4c0-.55-.45-1-1-1zm-1 4h-2v-2h2v2zM56 7h-10c-.55 0-1 .45-1 1s.45 1 1 1h10c.55 0 1-.45 1-1s-.45-1-1-1zM56 11h-10c-.55 0-1 .45-1 1s.45 1 1 1h10c.55 0 1-.45 1-1s-.45-1-1-1zM56 16h-10c-.55 0-1 .45-1 1s.45 1 1 1h10c.55 0 1-.45 1-1s-.45-1-1-1zM56 20h-10c-.55 0-1 .45-1 1s.45 1 1 1h10c.55 0 1-.45 1-1s-.45-1-1-1z"></path></svg>