<svg xmlns="http://www.w3.org/2000/svg" width="64" height="64" id="communication"><path d="M15.666 2.334a3 3 0 0 0-3 3 3 3 0 0 0 2.5 2.953v2.387h1V8.29a3 3 0 0 0 2.5-2.957 3 3 0 0 0-3-3zM3 9a3 3 0 0 0-3 3 3 3 0 0 0 3 3 3 3 0 0 0 2.51-1.361l5.969 3.507c-.001-.01-.004-.017-.004-.027l-.002-.035v-1.102l-5.563-3.27A3 3 0 0 0 6 12a3 3 0 0 0-3-3zm26 0a3 3 0 0 0-3 3 3 3 0 0 0 .162.965L20.14 16.38V17.08c-.006.17-.037.329-.067.488l6.565-3.722A3 3 0 0 0 29 15a3 3 0 0 0 3-3 3 3 0 0 0-3-3zm-16.924 2.008a.375.375 0 0 0-.271.353v2.543c0 .502.265.946.668 1.207v1.938c.08 1.155.524 1.963 1.144 2.459-.073.573-.318.904-.728 1.209-.486.36-1.192.638-1.938.957-.745.318-1.537.7-2.146 1.375-.61.674-1 1.619-1 2.98v.25l.209.082c5.125 2.96 9.863 3.302 15.582 0l.209-.082v-.25c0-1.329-.396-2.266-1-2.918-.605-.651-1.39-1.001-2.125-1.312-.736-.311-1.438-.587-1.916-.957-.47-.363-.74-.782-.75-1.584.647-.535 1.097-1.29 1.125-2.21v-3.25c0-1.163-.882-2.124-2-2.124h-4c-.229 0-.417-.036-.5-.082-.083-.046-.104-.053-.104-.229.002-.223-.243-.413-.459-.355zm3.729 9.724c.539 0 .976.438.976.977 0 .267-.108.534-.295.715 0 0-.243.116-.138.506l.79 4.422-1.333.666-1.307-.674.805-4.414c.104-.323-.127-.487-.143-.506a.942.942 0 0 1-.332-.715c0-.54.437-.977.977-.977zm8.424 2.747c.215.433.39.906.482 1.443l1.43.84a3 3 0 0 0-.141.904 3 3 0 0 0 3 3 3 3 0 0 0 3-3 3 3 0 0 0-3-3 3 3 0 0 0-2.4 1.207l-2.371-1.394zM3 23.666a3 3 0 0 0-3 3 3 3 0 0 0 3 3 3 3 0 0 0 3-3 3 3 0 0 0-.18-1.014l1.063-.603c.072-.5.206-.95.38-1.365L5.33 24.78A3 3 0 0 0 3 23.666z" color="#000" font-family="sans-serif" font-weight="400" overflow="visible" style="line-height:normal;text-indent:0;text-align:start;text-decoration-line:none;text-decoration-style:solid;text-decoration-color:#000;text-transform:none;block-progression:tb;white-space:normal;isolation:auto;mix-blend-mode:normal;solid-color:#000;solid-opacity:1"></path></svg>