<svg xmlns="http://www.w3.org/2000/svg" data-name="Layer 1" viewBox="0 0 64 64" id="health-care"><path d="M24.221 22.76h4.491v4.494a1 1 0 001 1h5.547a1 1 0 001-1V22.76H40.75a1 1 0 001-1V16.215a1 1 0 00-1-1H36.259V10.723a1 1 0 00-1-1H29.712a1 1 0 00-1 1v4.492H24.221a1 1 0 00-1 1V21.76A1 1 0 0024.221 22.76zm1-5.545h4.491a1 1 0 001-1V11.723h3.547v4.492a1 1 0 001 1H39.75V20.76H35.259a1 1 0 00-1 1v4.494H30.712V21.76a1 1 0 00-1-1H25.221zM57.764 22.821a4.025 4.025 0 00-4.025 4.049l.033 5.571L50.709 35.86a3.5 3.5 0 00-.771-1.147A3.431 3.431 0 0047.4 33.7a3.473 3.473 0 00-2.494 1.114L38 42.229a3.154 3.154 0 00-.852 2.159V56.965h-.191a1 1 0 00-1 1v5.178a1 1 0 001 1h12.3a1 1 0 001-1V57.965a1 1 0 00-1-1H39.149V44.388a1.164 1.164 0 01.314-.795l6.908-7.416a1.5 1.5 0 011.071-.478 1.636 1.636 0 011.089.435 1.5 1.5 0 01.057 2.078l-4.788 5.3 1.484 1.341 4.052-4.482.012.011 6.172-6.89a1 1 0 00.254-.673l-.035-5.957a2.025 2.025 0 012.025-2.037 2.036 2.036 0 012.023 1.98l.235 10.6L47.272 52.755a1 1 0 00-.23.638v1.393h2V53.755L61.8 38.391a1 1 0 00.23-.661l-.243-10.974A4.048 4.048 0 0057.764 22.821zM48.042 58.965h.215v3.178h-10.3V58.965H48.042zM15.843 56.965h-.214a1 1 0 00-1 1v5.178a1 1 0 001 1h12.3a1 1 0 001-1V57.965a1 1 0 00-1-1H17.843V53.393a1 1 0 00-.231-.638L4.862 37.4 5.1 26.8a2.036 2.036 0 012.023-1.98 2.023 2.023 0 012.024 2.037l-.035 5.957a1.006 1.006 0 00.255.673l6.172 6.89.011-.01L19.6 44.849l1.484-1.341-4.788-5.3a1.5 1.5 0 01.058-2.078 1.559 1.559 0 011.088-.435 1.5 1.5 0 011.072.478l6.909 7.417a1.162 1.162 0 01.312.794V54.571h2V44.388a3.153 3.153 0 00-.85-2.158l-6.908-7.417a3.48 3.48 0 00-2.5-1.113 3.438 3.438 0 00-2.534 1.013 3.5 3.5 0 00-.771 1.148l-3.064-3.42.033-5.571a4.024 4.024 0 00-4.024-4.049A4.048 4.048 0 003.1 26.756L2.854 37.73a1.012 1.012 0 00.231.661L15.843 53.755zm10.893 2h.192v3.178h-10.3V58.965H26.736z"></path><path d="M15.056,23.705,31.722,40.371a1,1,0,0,0,1.414,0L49.8,23.705c4.049-4.049,5.656-9.039,4.41-13.692a12.479,12.479,0,0,0-8.8-8.8C41.032.042,36.344,1.4,32.429,4.951,25.956-.912,18.351.253,14.017,4.586,9.524,9.078,8.438,17.088,15.056,23.705ZM15.431,6a10.47,10.47,0,0,1,7.381-3.091c2.844,0,5.964,1.184,8.91,4.13a1,1,0,0,0,1.414,0C36.72,3.456,40.9,2.074,44.9,3.147a10.472,10.472,0,0,1,7.384,7.384c1.072,4-.31,8.178-3.892,11.76L32.429,38.25,16.47,22.291C10.517,16.338,11.758,9.673,15.431,6Z"></path></svg>