<svg xmlns="http://www.w3.org/2000/svg" viewBox="0 0 512 512" id="health-report"><circle cx="202.894" cy="429.859" r="9"></circle><circle cx="174.894" cy="429.859" r="9"></circle><path d="M323.7876,96.21436h-54.05811v-11.44336c0-12.14648-9.88574-22.02881-22.03711-22.02881h-20.81445c-3.73096-17.53564-19.35889-30.74219-37.98389-30.74219s-34.25342,13.20654-37.98438,30.74219h-20.81396c-12.15137,0-22.0376,9.88232-22.0376,22.02881v11.44336H54c-12.13086,0-22,9.86914-22,22V458c0,12.13086,9.86914,22,22,22H323.7876c12.13086,0,22-9.86914,22-22V118.21436c0-12.13086-9.86914-22-22-22Zm-199.72949-11.44336c0-3.32422,2.7085-6.02881,6.0376-6.02881h27.96826c4.41113,0,7.98975-3.57031,8-7.98145,.02881-12.55029,10.27051-22.76074,22.83008-22.76074s22.80078,10.21045,22.82959,22.76074c.01025,4.41113,3.58887,7.98145,8,7.98145h27.96875c3.3291,0,6.03711,2.70459,6.03711,6.02881v11.44336H124.05811v-11.44336Zm205.72949,373.229c0,3.30859-2.69141,6-6,6H54c-3.30859,0-6-2.69141-6-6V118.21436c0-3.30859,2.69141-6,6-6H323.7876c3.30859,0,6,2.69141,6,6V458Z"></path><circle cx="188.894" cy="68.81" r="9.128"></circle><path d="M188.89404,308.90186c49.54883,0,89.85938-40.28955,89.85938-89.81201s-40.31055-89.81201-89.85938-89.81201-89.85938,40.28955-89.85938,89.81201,40.31055,89.81201,89.85938,89.81201Zm0-163.62402c40.72607,0,73.85938,33.11182,73.85938,73.81201s-33.1333,73.81201-73.85938,73.81201-73.85938-33.11182-73.85938-73.81201,33.1333-73.81201,73.85938-73.81201Z"></path><path d="M151.24854 241.83545h14.89111v14.87793c0 9.24072 7.52002 16.7583 16.76318 16.7583h11.98193c9.24316 0 16.76318-7.51758 16.76318-16.7583v-14.87793h14.8916c9.24316 0 16.7627-7.51758 16.7627-16.75781v-11.97559c0-9.24023-7.51953-16.75781-16.7627-16.75781h-14.8916v-14.87793c0-9.24023-7.52002-16.75781-16.76318-16.75781h-11.98193c-9.24316 0-16.76318 7.51758-16.76318 16.75781v14.87793h-14.89111c-9.24316 0-16.76318 7.51758-16.76318 16.75781v11.97559c0 9.24023 7.52002 16.75781 16.76318 16.75781zm-.76318-28.7334c0-.41797.34229-.75781.76318-.75781h22.89111c4.41846 0 8-3.58154 8-8v-22.87793c0-.41797.34229-.75781.76318-.75781h11.98193c.4209 0 .76318.33984.76318.75781v22.87793c0 4.41846 3.58154 8 8 8h22.8916c.42041 0 .7627.33984.7627.75781v11.97559c0 .41797-.34229.75781-.7627.75781h-22.8916c-4.41846 0-8 3.58154-8 8v22.87793c0 .41797-.34229.7583-.76318.7583h-11.98193c-.4209 0-.76318-.34033-.76318-.7583v-22.87793c0-4.41846-3.58154-8-8-8h-22.89111c-.4209 0-.76318-.33984-.76318-.75781v-11.97559zM288.80127 329.74023H88.98682c-4.41846 0-8 3.58154-8 8s3.58154 8 8 8h199.81445c4.41846 0 8-3.58154 8-8s-3.58154-8-8-8zM288.80127 375.7998H88.98682c-4.41846 0-8 3.58154-8 8s3.58154 8 8 8h199.81445c4.41846 0 8-3.58154 8-8s-3.58154-8-8-8zM288.80127 421.85938h-56.82031c-4.41846 0-8 3.58154-8 8s3.58154 8 8 8h56.82031c4.41846 0 8-3.58154 8-8s-3.58154-8-8-8zM146.22314 421.85938h-57.23633c-4.41846 0-8 3.58154-8 8s3.58154 8 8 8h57.23633c4.41846 0 8-3.58154 8-8s-3.58154-8-8-8zM464.62354 130.68604h-27.40625v-22.36279c0-8.271-6.729-15-15-15h-19.03369c-8.271 0-15 6.729-15 15v22.36279h-.62109c-4.41846 0-8 3.58154-8 8v250.26709c0 3.40479 2.13049 6.30493 5.12811 7.45996l2.95831 34.13721c.3584 4.13477 3.81982 7.30908 7.97021 7.30908h9.08105v34.14062c0 4.41846 3.58154 8 8 8s8-3.58154 8-8v-34.14062h9.08105c4.15039 0 7.61182-3.17432 7.97021-7.30908l2.95831-34.13702c2.99786-1.15485 5.1286-4.05511 5.1286-7.46014V146.68604h18.16162v30.97363c0 4.41846 3.58154 8 8 8s8-3.58154 8-8v-31.60107c0-8.47656-6.89795-15.37256-15.37646-15.37256zm-69.06104 182.52295h34.27588v67.74414h-34.27588v-67.74414zm0-166.52295h34.27588v150.52295h-34.27588V146.68604zm8.62109-37.36279h17.03369v21.36279h-17.03369v-21.36279zm18.26074 312.53613h-19.48828l-2.15869-24.90625h23.80566l-2.15869 24.90625z"></path></svg>