<svg xmlns="http://www.w3.org/2000/svg" width="32" height="32" id="love"><path d="M23.813 4.91a3.473 3.473 0 0 0-2.264.729c-1.333-1.022-3.23-.974-4.447.244H17.1v.002a3.378 3.378 0 0 0 .011 4.783l2.053 2.035 2.05 2.035a.5.5 0 0 0 .706-.002l2.043-2.043 2.043-2.043c1.312-1.312 1.358-3.428.033-4.744l-.027-.029a.5.5 0 0 0-.016-.016 3.27 3.27 0 0 0-2.183-.95zm-.217.96a2.394 2.394 0 0 1 1.695.7l.021.026a.5.5 0 0 0 .018.015c.947.939.917 2.38-.033 3.33l-2.043 2.043-1.692 1.692-1.697-1.684-2.05-2.035a2.358 2.358 0 0 1-.008-3.37l.002.003a2.387 2.387 0 0 1 3.388-.008.5.5 0 0 0 .707-.002c.471-.471 1.08-.71 1.692-.71zm-4.563 1.25c-.43 0-.71.33-.83.66-.12.328-.12.676 0 1.005a.5.5 0 1 0 .94-.344.585.585 0 0 1 0-.318c.007-.02 0-.011.002-.016a.5.5 0 0 0-.11-.988h-.002zM1.5 14a.5.5 0 0 0-.5.5v10a.5.5 0 0 0 .5.5h5a.5.5 0 0 0 .5-.5v-.984l10.08 3.345a.5.5 0 0 0 .033.01c1.073.272 2.308.113 3.252-.504l9.711-5.277a.5.5 0 0 0 .006-.006l.236-.135a.5.5 0 0 0 0-.002 1.833 1.833 0 0 0 .795-2.3c-.306-.726-.91-1.059-1.38-1.127-.472-.07-.858.064-.858.064a.5.5 0 0 0-.053.02l-5.326 2.472c.007-.066.022-.13.022-.197 0-1.124-.931-2.037-2.059-2.037h-4.44c-.018-.034-.04-.082-.058-.113a5.014 5.014 0 0 0-.887-1.163 5.188 5.188 0 0 0-3.64-1.474L7 15.094V14.5a.5.5 0 0 0-.5-.5h-5zm.5 1h.994v6.492a.5.5 0 1 0 1.002.002L3.994 15H6v9H2v-9zm10.432 1.09a4.181 4.181 0 0 1 3.447 1.789c.074.108.143.22.207.334.078.142.132.228.174.326l.129.303h5.07c.599 0 1.059.456 1.059 1.035 0 .422-.25.777-.616.94l-.047.02a1.096 1.096 0 0 1-.398.077l-6.953.002v.998h6.953c.202 0 .393-.038.578-.092a.5.5 0 0 0 .19-.056l.013-.006.055-.026 6.908-3.203a.879.879 0 0 1 .385-.023c.215.031.419.09.603.527a.818.818 0 0 1-.363 1.043l-.234.133-9.71 5.275a.5.5 0 0 0-.036.024c-.659.442-1.682.59-2.483.388l-10.302-3.42A.5.5 0 0 0 7 22.464v-6.371l5.432-.002z" color="#000" font-family="sans-serif" font-weight="400" overflow="visible" style="line-height:normal;text-indent:0;text-align:start;text-decoration-line:none;text-decoration-style:solid;text-decoration-color:#000;text-transform:none;block-progression:tb;white-space:normal;isolation:auto;mix-blend-mode:normal;solid-color:#000;solid-opacity:1"></path></svg>