<svg xmlns="http://www.w3.org/2000/svg" data-name="Layer 1" viewBox="0 0 512 512" id="medical-sign"><path d="m435.19 382.037 68.707-79.987a39.256 39.256 0 0 0 7.876-37.035L472.146 132.91a23.927 23.927 0 0 0-46.836 6.81c0 .56.017 1.12.057 1.633l5.522 80.524a19.146 19.146 0 0 0-14.815 5.186l-67.82 64.67a78.73 78.73 0 0 0-24.314 56.707v61.849a28.387 28.387 0 0 0-13.97 24.417V504.5a7.5 7.5 0 0 0 15 0v-51.75H425.31v51.75a7.5 7.5 0 0 0 15 0v-69.794a28.375 28.375 0 0 0-13.38-24.055v-6.341a34.21 34.21 0 0 1 8.26-22.273Zm-9.881 55.713H324.97v-3.044a13.461 13.461 0 0 1 13.494-13.396h73.35a13.461 13.461 0 0 1 13.494 13.396Zm-1.5-65.485a49.218 49.218 0 0 0-11.88 32.045v2.003c-.038 0-.076-.003-.115-.003H338.94v-57.87a63.666 63.666 0 0 1 19.665-45.852l67.824-64.672a4.2 4.2 0 0 1 5.853.073l.559.568q.318.319.614.65c.065.08.132.158.2.235a21.937 21.937 0 0 1-1.04 30.158l-37.63 37.1a7.5 7.5 0 0 0 10.53 10.68l37.632-37.1a36.939 36.939 0 0 0 3.443-48.696l-6.263-91.321a7.27 7.27 0 0 1-.017-.543 8.928 8.928 0 0 1 17.466-2.505l39.63 132.11a24.323 24.323 0 0 1-4.885 22.948ZM189.5 410.289V347a78.738 78.738 0 0 0-24.314-56.708l-67.818-64.668a19.137 19.137 0 0 0-14.818-5.183l5.516-80.446c.043-.539.064-1.1.064-1.715a23.927 23.927 0 0 0-46.833-6.815L1.666 263.575a39.25 39.25 0 0 0 7.875 37.031l68.709 79.99a34.218 34.218 0 0 1 8.26 22.274v7.782a28.374 28.374 0 0 0-13.378 24.054V504.5a7.5 7.5 0 0 0 15 0v-51.75H188.47v51.75a7.5 7.5 0 0 0 15 0v-69.794a28.387 28.387 0 0 0-13.97-24.417ZM20.917 290.83a24.321 24.321 0 0 1-4.884-22.944l39.633-132.117a8.927 8.927 0 0 1 17.464 2.511c0 .174-.002.347-.023.608l-6.257 91.247a36.948 36.948 0 0 0 3.444 48.706l37.63 37.1a7.5 7.5 0 1 0 10.532-10.682L80.827 268.16a21.95 21.95 0 0 1-1.028-30.184c.256-.291.517-.577.849-.908l.494-.506a4.214 4.214 0 0 1 5.873-.085l67.818 64.668A63.668 63.668 0 0 1 174.5 347v59.31h-72.874c-.04 0-.077.002-.116.003v-3.443a49.227 49.227 0 0 0-11.88-32.047ZM188.47 437.75H88.132v-3.044a13.461 13.461 0 0 1 13.494-13.396h73.349a13.461 13.461 0 0 1 13.495 13.396Zm92.267-164.96c23.471-7.214 42.172-14.704 45.553-28.691a17.178 17.178 0 0 0-2.284-13.594c-5.096-7.958-16.903-13.21-32.407-17.5 25.359-5.96 44.504-13.327 48.212-27.528a15.77 15.77 0 0 0-1.803-12.417c-4.7-7.76-15.822-13.17-37.196-18.09a7.5 7.5 0 0 0-3.365 14.618c21.943 5.052 26.702 9.545 27.73 11.242a.854.854 0 0 1 .12.858c-.465 1.78-3.339 6.51-19.952 11.974-11.71 3.851-26.83 6.973-41.845 9.946v-64.856h72.619l.012.001.022-.001h44.117a11.5 11.5 0 0 0 8.71-19.009l-49.957-57.95A44.872 44.872 0 0 0 284.241 51.2L263.5 61.928V48.85a25 25 0 1 0-15 0v13.08L227.759 51.2a44.873 44.873 0 0 0-54.782 10.593l-49.957 57.95a11.5 11.5 0 0 0 8.71 19.009h44.117l.022.001.012-.001H248.5v64.856c-15.014-2.973-30.135-6.095-41.845-9.946-16.613-5.465-19.487-10.194-19.952-11.975a.852.852 0 0 1 .12-.857c1.028-1.697 5.786-6.19 27.725-11.241a7.5 7.5 0 1 0-3.365-14.617c-21.37 4.92-32.493 10.33-37.19 18.089a15.768 15.768 0 0 0-1.804 12.416c3.708 14.2 22.853 21.569 48.212 27.529-15.504 4.289-27.311 9.54-32.407 17.499a17.178 17.178 0 0 0-2.284 13.594c3.381 13.987 22.082 21.477 45.553 28.692-11.253 4.542-19.807 9.779-23.667 16.947a17.72 17.72 0 0 0-1.341 13.86c3.48 11.388 15.925 18.537 30.78 25.027-15.412 7.752-27.367 17.617-23.86 33.19a7.5 7.5 0 0 0 14.634-3.297c-1.523-6.76 7.227-12.576 20.691-18.724v20.372a7.5 7.5 0 0 0 15 0v-20.372c13.464 6.148 22.214 11.963 20.691 18.724a7.5 7.5 0 1 0 14.633 3.296c3.508-15.572-8.447-25.437-23.858-33.189 14.854-6.49 27.3-13.64 30.78-25.026a17.72 17.72 0 0 0-1.342-13.86c-3.86-7.17-12.414-12.406-23.667-16.948ZM248.5 317.198c-12.682-5.29-25.92-11.504-27.9-17.981a2.709 2.709 0 0 1 .203-2.365c2.75-5.11 14.491-9.957 27.697-14.296Zm0-54.912c-12.137-3.574-24.677-7.27-34.065-11.395-11.766-5.17-13.812-8.937-14.145-10.317a2.221 2.221 0 0 1 .337-1.98c4.42-6.905 26.345-12.274 47.873-16.698Zm0-138.533h-40.076a55.775 55.775 0 0 0 3.794-3.785 57.453 57.453 0 0 0 10.89-17.686 7.5 7.5 0 1 0-13.971-5.46 42.512 42.512 0 0 1-8.048 13.088c-8.639 9.559-19.694 12.767-25.863 13.843h-35.858l44.97-52.164a29.922 29.922 0 0 1 36.53-7.065L248.5 78.817Zm62.873 114.84a2.221 2.221 0 0 1 .337 1.981c-.333 1.38-2.379 5.147-14.145 10.317-9.389 4.125-21.928 7.82-34.065 11.395v-40.39c21.528 4.424 43.452 9.792 47.873 16.698ZM291.132 64.525a29.921 29.921 0 0 1 36.53 7.064l44.97 52.164h-35.858c-6.17-1.076-17.224-4.284-25.863-13.842a42.528 42.528 0 0 1-8.048-13.09 7.5 7.5 0 1 0-13.97 5.461 57.47 57.47 0 0 0 10.89 17.687 55.756 55.756 0 0 0 3.792 3.784H263.5V78.817ZM256 35a10 10 0 1 1 10-10 10.012 10.012 0 0 1-10 10Zm35.4 264.216c-1.98 6.477-15.218 12.691-27.9 17.98v-34.64c13.206 4.338 24.946 9.185 27.697 14.295a2.709 2.709 0 0 1 .202 2.365Z"></path></svg>