<svg xmlns="http://www.w3.org/2000/svg" enable-background="new 0 0 512 512" viewBox="0 0 512 512" id="nurse"><path d="M392,152c-57.346,0-104,46.654-104,104c0,4.117,0.242,8.179,0.711,12.173l-45.56-19.526
		c-1.025-0.439-2.095-0.641-3.151-0.64v-11.498c14.683-14.169,25.015-32.423,29.497-52.509h0.431
		c14.129,0,26.303-10.455,28.484-24.379c0.931-0.295,1.813-0.754,2.594-1.381c1.893-1.518,2.994-3.813,2.994-6.24v-39.552
		c0-21.095-11.655-39.648-29.357-49.107l-2.692-24.224c-0.314-2.826-2.104-5.272-4.702-6.427
		c-47.821-21.254-102.677-21.254-150.498,0c-2.598,1.155-4.388,3.602-4.702,6.427l-1.85,16.65C91.774,69.129,80,90.792,80,115.149
		V152c0,2.529,1.196,4.909,3.225,6.418c0.724,0.538,1.525,0.937,2.364,1.202C87.769,173.545,99.942,184,114.072,184h0.431
		c4.482,20.086,14.814,38.34,29.497,52.509v11.498c-1.057-0.001-2.127,0.201-3.151,0.64l-56,24c-3.053,1.308-4.98,4.367-4.842,7.686
		c0.032,0.76,0.182,1.493,0.415,2.191c-18.182,8.074-33.686,20.869-45.092,37.328C22.684,338.099,16,359.478,16,381.679V488
		c0,4.418,3.582,8,8,8h336c4.418,0,8-3.582,8-8V381.679c0-8.6-1.015-17.073-2.979-25.292C373.628,358.721,382.662,360,392,360
		c57.346,0,104-46.654,104-104S449.346,152,392,152z M243.267,266.104l30.241,12.96l-28.038,9.346
		c-3.828,1.276-6.106,5.202-5.315,9.158l6.916,34.578L200,361.566v-23.35L243.267,266.104z M271.779,167.851
		c0.137-2.18,0.221-4.371,0.221-6.575v-6.414l10.591,2.354C281.691,162.761,277.229,167.047,271.779,167.851z M288,112.448v29.579
		l-78.514-17.447c-9.633-2.141-18.622-6.547-26.216-12.731c29.094-0.666,58.212,1.992,87.105,7.985
		c0.54,0.112,1.083,0.167,1.625,0.167c1.973,0,3.898-0.73,5.385-2.084c1.895-1.725,2.849-4.253,2.566-6.799l-2.896-26.064
		C283.881,92.21,288,101.875,288,112.448z M127.436,45.517c41.284-17.027,87.844-17.027,129.128,0l6.285,56.564
		c-23.532-4.227-47.192-6.34-70.849-6.34s-47.317,2.114-70.849,6.34L127.436,45.517z M96,115.149
		c0-12.891,4.232-24.807,11.424-34.41l-3.375,30.378c-0.283,2.546,0.671,5.075,2.566,6.799c1.895,1.725,4.502,2.437,7.01,1.917
		c8.688-1.802,17.396-3.296,26.117-4.496c-10.005,11.386-22.859,19.645-37.533,24.047L96,141.248V115.149z M101.364,156.979
		l-0.087-0.609l5.53-1.659c1.756-0.527,3.482-1.116,5.193-1.735v8.301c0,2.204,0.084,4.395,0.221,6.575
		C106.692,167.035,102.172,162.64,101.364,156.979z M128,161.276v-15.764c11.159-6.52,20.916-15.24,28.804-25.843
		c1.621-2.179,3.142-4.41,4.562-6.69c0.156-0.013,0.313-0.027,0.469-0.039c11.207,13.736,26.866,23.41,44.179,27.258l8.569,1.904
		l-4.24,4.24c-3.125,3.124-3.125,8.189,0,11.313c3.124,3.124,8.189,3.124,11.313,0l2.343-2.343l2.343,2.343
		c1.562,1.562,3.609,2.343,5.657,2.343s4.095-0.781,5.657-2.343c2.784-2.784,3.081-7.107,0.902-10.226L256,151.306v9.97
		c0,34.945-20.634,66.695-52.566,80.888c-7.265,3.229-15.6,3.229-22.867,0C148.634,227.972,128,196.221,128,161.276z
		 M174.068,256.785c5.698,2.532,11.815,3.798,17.932,3.798s12.234-1.266,17.932-3.798c4.928-2.19,9.621-4.742,14.068-7.603v17.935
		l-32,53.333l-32-53.333v-17.935C164.447,252.043,169.141,254.595,174.068,256.785z M140.733,266.104L184,338.216v23.35
		l-47.071-29.419l6.916-34.578c0.791-3.956-1.487-7.882-5.315-9.158l-28.038-9.346L140.733,266.104z M32,381.679
		c0-38.361,24.133-73.185,60.051-86.654l7.4-2.775l27.319,9.106l-6.615,33.075c-0.652,3.263,0.783,6.589,3.604,8.353l60.24,37.65
		V480H32V381.679z M352,480H200v-99.566l60.24-37.65c2.822-1.764,4.257-5.09,3.604-8.353l-6.615-33.075l27.319-9.106l7.4,2.775
		C327.867,308.494,352,343.318,352,381.679V480z M392,344c-11.849,0-23.141-2.381-33.459-6.659c-2.726-6.076-6.017-11.93-9.87-17.49
		c-10.27-14.82-23.855-26.682-39.733-34.792C305.745,275.957,304,266.179,304,256c0-48.523,39.477-88,88-88s88,39.477,88,88
		S440.523,344,392,344z"></path><path d="M200 80v-8h8c4.418 0 8-3.582 8-8s-3.582-8-8-8h-8v-8c0-4.418-3.582-8-8-8s-8 3.582-8 8v8h-8c-4.418 0-8 3.582-8 8s3.582 8 8 8h8v8c0 4.418 3.582 8 8 8S200 84.418 200 80zM170.343 202.343c-3.125 3.124-3.125 8.189 0 11.313 5.971 5.971 13.813 8.957 21.657 8.957s15.686-2.986 21.657-8.957c3.125-3.124 3.125-8.189 0-11.313-3.124-3.124-8.189-3.124-11.313 0-2.763 2.763-6.436 4.284-10.343 4.284s-7.581-1.521-10.343-4.284C178.533 199.219 173.467 199.219 170.343 202.343zM160 155.313l2.343 2.343c1.562 1.562 3.609 2.343 5.657 2.343s4.095-.781 5.657-2.343c3.125-3.124 3.125-8.189 0-11.313l-8-8c-3.124-3.124-8.189-3.124-11.313 0l-8 8c-3.125 3.124-3.125 8.189 0 11.313 3.124 3.124 8.189 3.124 11.313 0L160 155.313zM304 376h-48c-4.418 0-8 3.582-8 8v48c0 2.675 1.337 5.173 3.562 6.656l24 16c1.343.896 2.891 1.344 4.438 1.344s3.094-.448 4.438-1.344l24-16c2.226-1.483 3.562-3.981 3.562-6.656v-48C312 379.582 308.418 376 304 376zM296 427.719l-16 10.667-16-10.667V392h32V427.719zM136 376h-24v-16c0-4.418-3.582-8-8-8s-8 3.582-8 8v16H72c-4.418 0-8 3.582-8 8v32c0 4.418 3.582 8 8 8h64c4.418 0 8-3.582 8-8v-32C144 379.582 140.418 376 136 376zM128 408H80v-16h48V408zM456 224h-32v-32c0-4.418-3.582-8-8-8h-48c-4.418 0-8 3.582-8 8v32h-32c-4.418 0-8 3.582-8 8v48c0 4.418 3.582 8 8 8h32v32c0 4.418 3.582 8 8 8h48c4.418 0 8-3.582 8-8v-32h32c4.418 0 8-3.582 8-8v-48C464 227.582 460.418 224 456 224zM448 272h-32c-4.418 0-8 3.582-8 8v32h-32v-32c0-4.418-3.582-8-8-8h-32v-32h32c4.418 0 8-3.582 8-8v-32h32v32c0 4.418 3.582 8 8 8h32V272z"></path></svg>