<svg xmlns="http://www.w3.org/2000/svg" enable-background="new 206 -206 512 512" viewBox="206 -206 512 512" id="top-rated-doctor"><path d="M649.2,128.1c-14.3-14.3-37.5-14.3-51.8,0c-14.3-14.3-37.6-14.3-51.9,0c-14.2,14.2-14.3,37.3,0,51.6l51.7,52l52-52
		c14.2-14.1,14.3-37.1,0.2-51.4C649.3,128.2,649.3,128.2,649.2,128.1z"></path><path d="M662.8,77c-19.2-13-42.1-20-65.4-20c-40.5-0.1-78.2,20.8-99.6,55.1c-1.1,1.7-2.1,3.6-3.2,5.4l-1.8-1.4
		c-9.2-6.5-20.2-10-31.5-10.1h-43.9V91.9c12.6-5.4,24-13.3,33.6-23.1c12.4-12.4,21.7-27.6,27.2-44.3c0.2,0,0.3,0,0.5,0
		c15.8,0,28.6-12.8,28.7-28.6c0-7.7-3.1-15-8.5-20.4c-4.2-4.2-9.6-7-15.5-8v-19.6c10.9,4.5,22.9,5.4,34.3,2.5
		c29.6-7.3,47.6-37.2,40.3-66.8c-3.2-12.9-11-24.3-21.9-31.9c-0.6-0.4-1.3-0.9-2-1.3l-0.8-0.5c-0.1,0-0.1-0.1-0.2-0.1
		c-21.8-13.1-49.8-9.6-67.8,8.5c-16-24.3-40.8-41.4-69.2-47.7c-7.9-1.7-15.9-2.6-24-2.6c-29.5-0.1-57.9,11.7-78.7,32.6
		c-5.1,5.1-9.7,10.7-13.7,16.7c-1.1,1-1.9,2.3-2.4,3.7c-10.9,17.6-16.8,37.7-17,58.4v48.1c-5.7,1.2-10.9,3.9-15.1,7.9
		c0,0,0.1,0.1,0,0.1c-11.2,11.3-11,29.5,0.2,40.6c5.4,5.3,12.6,8.3,20.2,8.3c0.2,0,0.4,0,0.6,0c10.2,31.6,34.1,57,65,69.1v12.6
		h-42.9c-43.4,0-79.1,35.6-79.1,79v79.4c0,4.4,4,7.6,8.5,7.6h312.1c0.7,0.1,1.3,0,2-0.1c53.9,36.2,126.9,21.8,163-32
		C731,186.1,716.6,113.1,662.8,77z M253.1-4.1c-0.1-3.3,1.2-6.6,3.5-9c1.2-1,2.4-1.9,3.8-2.7v5.9c0.1,6,0.6,12,1.7,17.9
		C256.7,6.4,253.1,1.4,253.1-4.1z M487.6-13.1c5,4.9,5,12.9,0.1,17.8c-1.6,1.6-3.5,2.7-5.7,3.3c1-5.9,1.4-11.9,1.4-17.9v-5.9
		C485-15.3,486.4-14.4,487.6-13.1z M538.1-82.7c-9.1,15-27,22.1-43.8,17.5l49.3-33.5C542.9-93.1,541-87.6,538.1-82.7z M533.2-129.7
		c3.5,3.8,6.2,8.2,7.9,13.1l-57.7,39.2v-3.1c0-3.7-0.1-7.4-0.5-11.2L533.2-129.7z M519.3-139.2l-39.4,29.9c-1.6-6-3.7-11.8-6.3-17.5
		C484.3-140.7,503-145.8,519.3-139.2z M304.8-148c17.9-17.9,42.1-28,67.4-27.9c2.6,0,5.2,0.1,7.8,0.3c-28,26.9-58.1,32.6-79.5,32.2
		C301.9-144.9,303.3-146.5,304.8-148z M289.6-128c4.3,0.4,8.5,0.6,12.8,0.6c26.4,0,63.5-8.1,96.5-44.8c6.2,1.8,12.2,4.2,17.8,7.2
		c-22.1,34.1-52.2,54.2-89.7,59.8c-15.5,2.2-31.3,1.9-46.7-1C282.5-113.8,285.6-121.1,289.6-128z M276.4-80.5
		c0.1-3.3,0.3-6.6,0.8-9.9c9.7,1.8,19.5,2.7,29.4,2.7c7.4,0,14.8-0.5,22.1-1.6c29.6-4.2,70.7-19.4,101.5-67.1
		c11.1,8.4,20.2,19.2,26.6,31.6c0.2,0.7,0.6,1.3,1,1.9c4.3,8.7,7.3,18.1,8.7,27.7c0.7,4.8,1,9.7,1,14.5v4.9
		c-21-16.6-27.9-40.1-27.9-40.3c-0.8-3.2-3.4-5.5-6.6-6c-3.3-0.5-6.5,1.1-8.2,3.9c-39.1,67.5-124.4,55.6-148.4,50.8V-80.5z
		 M280.9,18.4c-2.9-9.2-4.5-18.7-4.5-28.3v-41.2c13.2,2.4,26.6,3.6,40.1,3.6c35.7,0,82.6-9,113.3-49.3c8.3,16.8,21.4,30.9,37.6,40.4
		v46.5c0,8-0.9,16-2.9,23.8C451.2,65,399.1,95.6,348,82.3C316.2,74,290.8,49.9,280.9,18.4z M364.5,256.1h-0.1h-139v-71
		c0-34.5,28.6-63,63.1-63h6.9v32.6c-7.5,1.5-14.3,5.2-19.5,10.7c-7.5,7.4-11.6,17.5-11.5,28.1v44.3c0,4.4,3.1,8.3,7.6,8.3h12.7
		c4.4,0,8-3.6,8-8c0-4.4-3.6-8-8-8h-4.3v-36.6c-0.2-12.8,10-23.2,22.8-23.4h0.1h0.4c13-0.1,23.6,10.3,23.7,23.3v0.1v36.6h-7.9
		c-4.4,0-8,3.6-8,8c0,4.4,3.6,8,8,8h15.9c4.5-0.1,8.1-3.8,8.1-8.3v-44.3c-0.1-18.9-13.5-35.2-32-38.9v-32.5H336l28.5,28.8V256.1z
		 M347.4,111.2V98.6c17.8,4.2,36.4,3.8,54-1v13.6l-26.9,27.3L347.4,111.2z M380.4,256.1V155.3l32.4-33.2h19.6v32
		c-17.5,4.5-28,22.2-23.5,39.7s22.2,28,39.7,23.5s28-22.2,23.5-39.7c-1.5-5.7-4.4-10.9-8.6-15.1c-4.1-4.2-9.3-7.1-15.1-8.5v-31.9
		h12.9c8,0.1,15.9,2.6,22.4,7.2l4,2.8c-5.2,13.4-7.9,27.7-7.9,42.2c0,31.1,11.9,60.8,33.2,81.8H380.4z M440.6,169.1
		c4.4,0,8.6,1.7,11.7,4.8c6.4,6.4,6.5,16.8,0,23.3c-6.4,6.4-16.8,6.5-23.3,0c-6.4-6.4-6.5-16.8,0-23.3
		C432.1,170.8,436.3,169.1,440.6,169.1z M683.5,228.5c-18.6,29.6-51.1,47.6-86.1,47.6c-56.1,0-101.6-45.6-101.5-101.7
		c0-14.7,3.2-29.1,9.3-42.4c1.8-3.9,3.9-7.7,6.1-11.3c29.8-47.5,92.4-61.9,140-32.2C698.9,118.2,713.2,180.9,683.5,228.5z"></path><path d="M353.4-15.3c0-4.4-3.6-8-8-8-4.4 0-8 3.6-8 8v4.4c.1 5.2-4.1 9.5-9.3 9.6H328c-2.6 0-5-1-6.8-2.8-1.8-1.8-2.8-4.2-2.8-6.8v-4.4c0-4.4-3.6-8-8-8-4.4 0-8 3.6-8 8v4.4c0 14.1 11.4 25.5 25.5 25.5 14.1 0 25.5-11.4 25.5-25.5V-15.3zM416.6 14.8c14.2 0 25.7-11.4 25.8-25.6v-4.4c0-4.4-3.6-8-8-8-4.4 0-8 3.6-8 8v4.4c-.1 5.4-4.5 9.6-9.8 9.6-2.6 0-5.2-1-7.1-2.8-1.9-1.8-3-4.2-3.1-6.8v-4.4c0-4.4-3.6-8-8-8-4.4 0-8 3.6-8 8v4.4c.1 6.8 2.9 13.4 7.8 18.1C403.1 12.1 409.7 14.8 416.6 14.8z"></path></svg>